<mxfile host="app.diagrams.net" modified="2023-03-09T00:51:38.544Z" agent="5.0 (Windows NT 10.0; Win64; x64) AppleWebKit/537.36 (KHTML, like Gecko) Chrome/109.0.0.0 Safari/537.36 Edg/109.0.1518.78" etag="QgqC9QH0ZEaABmcESv22" version="20.8.20" type="github">
  <diagram name="第 1 页" id="A7y-OVJT-mDbY2HOoiZ-">
    <mxGraphModel dx="1387" dy="796" grid="1" gridSize="10" guides="1" tooltips="1" connect="1" arrows="1" fold="1" page="1" pageScale="1" pageWidth="827" pageHeight="1169" math="0" shadow="0">
      <root>
        <mxCell id="0" />
        <mxCell id="1" parent="0" />
        <mxCell id="XXLzyL1vh3Rbw9BeUKaH-2" value="Noisy Waveform" style="rounded=0;whiteSpace=wrap;html=1;" vertex="1" parent="1">
          <mxGeometry y="225" width="100" height="30" as="geometry" />
        </mxCell>
        <mxCell id="XXLzyL1vh3Rbw9BeUKaH-3" value="Auditory filterbank" style="rounded=0;whiteSpace=wrap;html=1;" vertex="1" parent="1">
          <mxGeometry x="240" y="225" width="136" height="35" as="geometry" />
        </mxCell>
        <mxCell id="XXLzyL1vh3Rbw9BeUKaH-4" value="outer and middle ear" style="rounded=0;whiteSpace=wrap;html=1;" vertex="1" parent="1">
          <mxGeometry x="110" y="225" width="120" height="30" as="geometry" />
        </mxCell>
        <mxCell id="XXLzyL1vh3Rbw9BeUKaH-6" value="Denoiser" style="rounded=0;whiteSpace=wrap;html=1;" vertex="1" parent="1">
          <mxGeometry x="414" y="180" width="96" height="30" as="geometry" />
        </mxCell>
        <mxCell id="XXLzyL1vh3Rbw9BeUKaH-7" value="" style="verticalLabelPosition=bottom;verticalAlign=top;html=1;shape=mxgraph.flowchart.or;" vertex="1" parent="1">
          <mxGeometry x="530" y="230" width="24" height="20" as="geometry" />
        </mxCell>
        <mxCell id="XXLzyL1vh3Rbw9BeUKaH-9" value="Inverse filterbank" style="rounded=0;whiteSpace=wrap;html=1;" vertex="1" parent="1">
          <mxGeometry x="580" y="222.5" width="136" height="35" as="geometry" />
        </mxCell>
      </root>
    </mxGraphModel>
  </diagram>
</mxfile>
